solid Exported from Blender-2.92.0
facet normal -0.000000 -0.000000 1.000000
outer loop
vertex 26.694641 18.840143 3.134601
vertex 26.694639 47.011086 3.134601
vertex -27.099108 47.011086 3.134597
endloop
endfacet
facet normal -0.000000 -0.000000 1.000000
outer loop
vertex 26.694641 18.840143 3.134601
vertex -27.099108 47.011086 3.134597
vertex -27.099106 18.840139 3.134597
endloop
endfacet
facet normal -1.000000 -0.000000 0.000000
outer loop
vertex -27.099106 18.840139 3.134597
vertex -27.099108 47.011086 3.134597
vertex -27.099108 47.011086 -1.516740
endloop
endfacet
facet normal -1.000000 0.000000 0.000000
outer loop
vertex -27.099106 18.840139 3.134597
vertex -27.099108 47.011086 -1.516740
vertex -27.099106 18.840139 -1.516740
endloop
endfacet
facet normal 0.000000 0.000000 -1.000000
outer loop
vertex -27.099106 18.840139 -1.516740
vertex -27.099108 47.011086 -1.516740
vertex 26.694639 47.011086 -1.516736
endloop
endfacet
facet normal 0.000000 0.000000 -1.000000
outer loop
vertex -27.099106 18.840139 -1.516740
vertex 26.694639 47.011086 -1.516736
vertex 26.694641 18.840143 -1.516736
endloop
endfacet
facet normal 1.000000 0.000000 0.000000
outer loop
vertex 26.694641 18.840143 -1.516736
vertex 26.694639 47.011086 -1.516736
vertex 26.694639 47.011086 3.134601
endloop
endfacet
facet normal 1.000000 0.000000 0.000000
outer loop
vertex 26.694641 18.840143 -1.516736
vertex 26.694639 47.011086 3.134601
vertex 26.694641 18.840143 3.134601
endloop
endfacet
facet normal 0.000000 -1.000000 0.000000
outer loop
vertex -27.099106 18.840139 3.134597
vertex -27.099106 18.840139 -1.516740
vertex 26.694641 18.840143 -1.516736
endloop
endfacet
facet normal 0.000000 -1.000000 0.000000
outer loop
vertex -27.099106 18.840139 3.134597
vertex 26.694641 18.840143 -1.516736
vertex 26.694641 18.840143 3.134601
endloop
endfacet
facet normal 0.000000 1.000000 0.000000
outer loop
vertex -27.099108 47.011086 -1.516740
vertex -27.099108 47.011086 3.134597
vertex 26.694639 47.011086 3.134601
endloop
endfacet
facet normal 0.000000 1.000000 0.000000
outer loop
vertex -27.099108 47.011086 -1.516740
vertex 26.694639 47.011086 3.134601
vertex 26.694639 47.011086 -1.516736
endloop
endfacet
endsolid Exported from Blender-2.92.0
