solid Exported from Blender-2.92.0
facet normal -1.000000 0.000000 0.000000
outer loop
vertex 0.487635 -14.824133 0.812473
vertex 0.487635 -14.824133 7.812128
vertex 0.487635 -9.070028 7.812128
endloop
endfacet
facet normal -1.000000 0.000000 0.000000
outer loop
vertex 0.487635 -14.824133 0.812473
vertex 0.487635 -9.070028 7.812128
vertex 0.487635 -9.070028 0.812473
endloop
endfacet
facet normal 0.000000 1.000000 0.000000
outer loop
vertex 0.487635 -9.070028 0.812473
vertex 0.487635 -9.070028 7.812128
vertex 6.339269 -9.070028 7.812128
endloop
endfacet
facet normal 0.000000 1.000000 0.000000
outer loop
vertex 0.487635 -9.070028 0.812473
vertex 6.339269 -9.070028 7.812128
vertex 6.339269 -9.070028 0.812473
endloop
endfacet
facet normal 1.000000 0.000000 0.000000
outer loop
vertex 6.339269 -9.070028 0.812473
vertex 6.339269 -9.070028 7.812128
vertex 6.339269 -14.824133 7.812128
endloop
endfacet
facet normal 1.000000 0.000000 0.000000
outer loop
vertex 6.339269 -9.070028 0.812473
vertex 6.339269 -14.824133 7.812128
vertex 6.339269 -14.824133 0.812473
endloop
endfacet
facet normal 0.000000 -1.000000 0.000000
outer loop
vertex 6.339269 -14.824133 0.812473
vertex 6.339269 -14.824133 7.812128
vertex 0.487635 -14.824133 7.812128
endloop
endfacet
facet normal 0.000000 -1.000000 0.000000
outer loop
vertex 6.339269 -14.824133 0.812473
vertex 0.487635 -14.824133 7.812128
vertex 0.487635 -14.824133 0.812473
endloop
endfacet
facet normal 0.000000 0.000000 -1.000000
outer loop
vertex 0.487635 -9.070028 0.812473
vertex 6.339269 -9.070028 0.812473
vertex 6.339269 -14.824133 0.812473
endloop
endfacet
facet normal 0.000000 0.000000 -1.000000
outer loop
vertex 0.487635 -9.070028 0.812473
vertex 6.339269 -14.824133 0.812473
vertex 0.487635 -14.824133 0.812473
endloop
endfacet
facet normal 0.000000 0.000000 1.000000
outer loop
vertex 6.339269 -9.070028 7.812128
vertex 0.487635 -9.070028 7.812128
vertex 0.487635 -14.824133 7.812128
endloop
endfacet
facet normal 0.000000 0.000000 1.000000
outer loop
vertex 6.339269 -9.070028 7.812128
vertex 0.487635 -14.824133 7.812128
vertex 6.339269 -14.824133 7.812128
endloop
endfacet
facet normal -0.707107 -0.707107 0.000000
outer loop
vertex 11.833318 -12.572147 0.810172
vertex 11.833318 -12.572147 7.809828
vertex 7.764552 -8.503382 7.809828
endloop
endfacet
facet normal -0.707107 -0.707107 0.000000
outer loop
vertex 11.833318 -12.572147 0.810172
vertex 7.764552 -8.503382 7.809828
vertex 7.764552 -8.503382 0.810172
endloop
endfacet
facet normal -0.707107 0.707107 0.000000
outer loop
vertex 7.764552 -8.503382 0.810172
vertex 7.764552 -8.503382 7.809828
vertex 11.902282 -4.365653 7.809828
endloop
endfacet
facet normal -0.707107 0.707107 0.000000
outer loop
vertex 7.764552 -8.503382 0.810172
vertex 11.902282 -4.365653 7.809828
vertex 11.902282 -4.365653 0.810172
endloop
endfacet
facet normal 0.707107 0.707107 0.000000
outer loop
vertex 11.902282 -4.365653 0.810172
vertex 11.902282 -4.365653 7.809828
vertex 15.971047 -8.434418 7.809828
endloop
endfacet
facet normal 0.707107 0.707107 0.000000
outer loop
vertex 11.902282 -4.365653 0.810172
vertex 15.971047 -8.434418 7.809828
vertex 15.971047 -8.434418 0.810172
endloop
endfacet
facet normal 0.707107 -0.707107 0.000000
outer loop
vertex 15.971047 -8.434418 0.810172
vertex 15.971047 -8.434418 7.809828
vertex 11.833318 -12.572147 7.809828
endloop
endfacet
facet normal 0.707107 -0.707107 0.000000
outer loop
vertex 15.971047 -8.434418 0.810172
vertex 11.833318 -12.572147 7.809828
vertex 11.833318 -12.572147 0.810172
endloop
endfacet
facet normal 0.000000 0.000000 -1.000000
outer loop
vertex 7.764552 -8.503382 0.810172
vertex 11.902282 -4.365653 0.810172
vertex 15.971047 -8.434418 0.810172
endloop
endfacet
facet normal 0.000000 0.000000 -1.000000
outer loop
vertex 7.764552 -8.503382 0.810172
vertex 15.971047 -8.434418 0.810172
vertex 11.833318 -12.572147 0.810172
endloop
endfacet
facet normal -0.000000 0.000000 1.000000
outer loop
vertex 11.902282 -4.365653 7.809828
vertex 7.764552 -8.503382 7.809828
vertex 11.833318 -12.572147 7.809828
endloop
endfacet
facet normal 0.000000 0.000000 1.000000
outer loop
vertex 11.902282 -4.365653 7.809828
vertex 11.833318 -12.572147 7.809828
vertex 15.971047 -8.434418 7.809828
endloop
endfacet
facet normal -1.000000 0.000000 0.000000
outer loop
vertex 12.449183 -2.928252 0.810172
vertex 12.449183 -2.928252 7.809828
vertex 12.449183 2.825852 7.809828
endloop
endfacet
facet normal -1.000000 0.000000 0.000000
outer loop
vertex 12.449183 -2.928252 0.810172
vertex 12.449183 2.825852 7.809828
vertex 12.449183 2.825852 0.810172
endloop
endfacet
facet normal 0.000000 1.000000 0.000000
outer loop
vertex 12.449183 2.825852 0.810172
vertex 12.449183 2.825852 7.809828
vertex 18.300817 2.825852 7.809828
endloop
endfacet
facet normal 0.000000 1.000000 0.000000
outer loop
vertex 12.449183 2.825852 0.810172
vertex 18.300817 2.825852 7.809828
vertex 18.300817 2.825852 0.810172
endloop
endfacet
facet normal 1.000000 0.000000 0.000000
outer loop
vertex 18.300817 2.825852 0.810172
vertex 18.300817 2.825852 7.809828
vertex 18.300817 -2.928252 7.809828
endloop
endfacet
facet normal 1.000000 0.000000 0.000000
outer loop
vertex 18.300817 2.825852 0.810172
vertex 18.300817 -2.928252 7.809828
vertex 18.300817 -2.928252 0.810172
endloop
endfacet
facet normal 0.000000 -1.000000 0.000000
outer loop
vertex 18.300817 -2.928252 0.810172
vertex 18.300817 -2.928252 7.809828
vertex 12.449183 -2.928252 7.809828
endloop
endfacet
facet normal 0.000000 -1.000000 0.000000
outer loop
vertex 18.300817 -2.928252 0.810172
vertex 12.449183 -2.928252 7.809828
vertex 12.449183 -2.928252 0.810172
endloop
endfacet
facet normal 0.000000 0.000000 -1.000000
outer loop
vertex 12.449183 2.825852 0.810172
vertex 18.300817 2.825852 0.810172
vertex 18.300817 -2.928252 0.810172
endloop
endfacet
facet normal 0.000000 0.000000 -1.000000
outer loop
vertex 12.449183 2.825852 0.810172
vertex 18.300817 -2.928252 0.810172
vertex 12.449183 -2.928252 0.810172
endloop
endfacet
facet normal 0.000000 0.000000 1.000000
outer loop
vertex 18.300817 2.825852 7.809828
vertex 12.449183 2.825852 7.809828
vertex 12.449183 -2.928252 7.809828
endloop
endfacet
facet normal 0.000000 0.000000 1.000000
outer loop
vertex 18.300817 2.825852 7.809828
vertex 12.449183 -2.928252 7.809828
vertex 18.300817 -2.928252 7.809828
endloop
endfacet
facet normal -0.707107 0.707107 0.000000
outer loop
vertex 7.764353 8.400982 0.810172
vertex 7.764353 8.400982 7.809828
vertex 11.833118 12.469748 7.809828
endloop
endfacet
facet normal -0.707107 0.707107 0.000000
outer loop
vertex 7.764353 8.400982 0.810172
vertex 11.833118 12.469748 7.809828
vertex 11.833118 12.469748 0.810172
endloop
endfacet
facet normal 0.707107 0.707107 0.000000
outer loop
vertex 11.833118 12.469748 0.810172
vertex 11.833118 12.469748 7.809828
vertex 15.970849 8.332019 7.809828
endloop
endfacet
facet normal 0.707107 0.707107 0.000000
outer loop
vertex 11.833118 12.469748 0.810172
vertex 15.970849 8.332019 7.809828
vertex 15.970849 8.332019 0.810172
endloop
endfacet
facet normal 0.707107 -0.707107 0.000000
outer loop
vertex 15.970849 8.332019 0.810172
vertex 15.970849 8.332019 7.809828
vertex 11.902083 4.263252 7.809828
endloop
endfacet
facet normal 0.707107 -0.707107 0.000000
outer loop
vertex 15.970849 8.332019 0.810172
vertex 11.902083 4.263252 7.809828
vertex 11.902083 4.263252 0.810172
endloop
endfacet
facet normal -0.707107 -0.707107 0.000000
outer loop
vertex 11.902083 4.263252 0.810172
vertex 11.902083 4.263252 7.809828
vertex 7.764353 8.400982 7.809828
endloop
endfacet
facet normal -0.707107 -0.707107 0.000000
outer loop
vertex 11.902083 4.263252 0.810172
vertex 7.764353 8.400982 7.809828
vertex 7.764353 8.400982 0.810172
endloop
endfacet
facet normal 0.000000 0.000000 -1.000000
outer loop
vertex 11.833118 12.469748 0.810172
vertex 15.970849 8.332019 0.810172
vertex 11.902083 4.263252 0.810172
endloop
endfacet
facet normal 0.000000 0.000000 -1.000000
outer loop
vertex 11.833118 12.469748 0.810172
vertex 11.902083 4.263252 0.810172
vertex 7.764353 8.400982 0.810172
endloop
endfacet
facet normal 0.000000 0.000000 1.000000
outer loop
vertex 15.970849 8.332019 7.809828
vertex 11.833118 12.469748 7.809828
vertex 7.764353 8.400982 7.809828
endloop
endfacet
facet normal 0.000000 0.000000 1.000000
outer loop
vertex 15.970849 8.332019 7.809828
vertex 7.764353 8.400982 7.809828
vertex 11.902083 4.263252 7.809828
endloop
endfacet
facet normal -1.000000 0.000000 0.000000
outer loop
vertex 0.524083 8.996747 0.810172
vertex 0.524083 8.996747 7.809828
vertex 0.524083 14.750852 7.809828
endloop
endfacet
facet normal -1.000000 0.000000 0.000000
outer loop
vertex 0.524083 8.996747 0.810172
vertex 0.524083 14.750852 7.809828
vertex 0.524083 14.750852 0.810172
endloop
endfacet
facet normal 0.000000 1.000000 0.000000
outer loop
vertex 0.524083 14.750852 0.810172
vertex 0.524083 14.750852 7.809828
vertex 6.375717 14.750852 7.809828
endloop
endfacet
facet normal 0.000000 1.000000 0.000000
outer loop
vertex 0.524083 14.750852 0.810172
vertex 6.375717 14.750852 7.809828
vertex 6.375717 14.750852 0.810172
endloop
endfacet
facet normal 1.000000 0.000000 0.000000
outer loop
vertex 6.375717 14.750852 0.810172
vertex 6.375717 14.750852 7.809828
vertex 6.375717 8.996747 7.809828
endloop
endfacet
facet normal 1.000000 0.000000 0.000000
outer loop
vertex 6.375717 14.750852 0.810172
vertex 6.375717 8.996747 7.809828
vertex 6.375717 8.996747 0.810172
endloop
endfacet
facet normal 0.000000 -1.000000 0.000000
outer loop
vertex 6.375717 8.996747 0.810172
vertex 6.375717 8.996747 7.809828
vertex 0.524083 8.996747 7.809828
endloop
endfacet
facet normal 0.000000 -1.000000 0.000000
outer loop
vertex 6.375717 8.996747 0.810172
vertex 0.524083 8.996747 7.809828
vertex 0.524083 8.996747 0.810172
endloop
endfacet
facet normal 0.000000 0.000000 -1.000000
outer loop
vertex 0.524083 14.750852 0.810172
vertex 6.375717 14.750852 0.810172
vertex 6.375717 8.996747 0.810172
endloop
endfacet
facet normal 0.000000 0.000000 -1.000000
outer loop
vertex 0.524083 14.750852 0.810172
vertex 6.375717 8.996747 0.810172
vertex 0.524083 8.996747 0.810172
endloop
endfacet
facet normal 0.000000 0.000000 1.000000
outer loop
vertex 6.375717 14.750852 7.809828
vertex 0.524083 14.750852 7.809828
vertex 0.524083 8.996747 7.809828
endloop
endfacet
facet normal 0.000000 0.000000 1.000000
outer loop
vertex 6.375717 14.750852 7.809828
vertex 0.524083 8.996747 7.809828
vertex 6.375717 8.996747 7.809828
endloop
endfacet
facet normal -0.707107 0.707107 0.000000
outer loop
vertex -9.071047 8.400881 0.810172
vertex -9.071047 8.400881 7.809828
vertex -5.002281 12.469646 7.809828
endloop
endfacet
facet normal -0.707107 0.707107 0.000000
outer loop
vertex -9.071047 8.400881 0.810172
vertex -5.002281 12.469646 7.809828
vertex -5.002281 12.469646 0.810172
endloop
endfacet
facet normal 0.707107 0.707107 0.000000
outer loop
vertex -5.002281 12.469646 0.810172
vertex -5.002281 12.469646 7.809828
vertex -0.864552 8.331918 7.809828
endloop
endfacet
facet normal 0.707107 0.707107 0.000000
outer loop
vertex -5.002281 12.469646 0.810172
vertex -0.864552 8.331918 7.809828
vertex -0.864552 8.331918 0.810172
endloop
endfacet
facet normal 0.707107 -0.707107 0.000000
outer loop
vertex -0.864552 8.331918 0.810172
vertex -0.864552 8.331918 7.809828
vertex -4.933318 4.263152 7.809828
endloop
endfacet
facet normal 0.707107 -0.707107 0.000000
outer loop
vertex -0.864552 8.331918 0.810172
vertex -4.933318 4.263152 7.809828
vertex -4.933318 4.263152 0.810172
endloop
endfacet
facet normal -0.707107 -0.707107 0.000000
outer loop
vertex -4.933318 4.263152 0.810172
vertex -4.933318 4.263152 7.809828
vertex -9.071047 8.400881 7.809828
endloop
endfacet
facet normal -0.707107 -0.707107 0.000000
outer loop
vertex -4.933318 4.263152 0.810172
vertex -9.071047 8.400881 7.809828
vertex -9.071047 8.400881 0.810172
endloop
endfacet
facet normal -0.000000 0.000000 -1.000000
outer loop
vertex -5.002281 12.469646 0.810172
vertex -0.864552 8.331918 0.810172
vertex -4.933318 4.263152 0.810172
endloop
endfacet
facet normal 0.000000 0.000000 -1.000000
outer loop
vertex -5.002281 12.469646 0.810172
vertex -4.933318 4.263152 0.810172
vertex -9.071047 8.400881 0.810172
endloop
endfacet
facet normal 0.000000 0.000000 1.000000
outer loop
vertex -0.864552 8.331918 7.809828
vertex -5.002281 12.469646 7.809828
vertex -9.071047 8.400881 7.809828
endloop
endfacet
facet normal 0.000000 0.000000 1.000000
outer loop
vertex -0.864552 8.331918 7.809828
vertex -9.071047 8.400881 7.809828
vertex -4.933318 4.263152 7.809828
endloop
endfacet
facet normal -1.000000 0.000000 0.000000
outer loop
vertex -11.400916 -2.928452 0.810172
vertex -11.400916 -2.928452 7.809828
vertex -11.400916 2.825652 7.809828
endloop
endfacet
facet normal -1.000000 0.000000 0.000000
outer loop
vertex -11.400916 -2.928452 0.810172
vertex -11.400916 2.825652 7.809828
vertex -11.400916 2.825652 0.810172
endloop
endfacet
facet normal 0.000000 1.000000 0.000000
outer loop
vertex -11.400916 2.825652 0.810172
vertex -11.400916 2.825652 7.809828
vertex -5.549283 2.825652 7.809828
endloop
endfacet
facet normal 0.000000 1.000000 0.000000
outer loop
vertex -11.400916 2.825652 0.810172
vertex -5.549283 2.825652 7.809828
vertex -5.549283 2.825652 0.810172
endloop
endfacet
facet normal 1.000000 0.000000 0.000000
outer loop
vertex -5.549283 2.825652 0.810172
vertex -5.549283 2.825652 7.809828
vertex -5.549283 -2.928452 7.809828
endloop
endfacet
facet normal 1.000000 0.000000 0.000000
outer loop
vertex -5.549283 2.825652 0.810172
vertex -5.549283 -2.928452 7.809828
vertex -5.549283 -2.928452 0.810172
endloop
endfacet
facet normal 0.000000 -1.000000 0.000000
outer loop
vertex -5.549283 -2.928452 0.810172
vertex -5.549283 -2.928452 7.809828
vertex -11.400916 -2.928452 7.809828
endloop
endfacet
facet normal 0.000000 -1.000000 0.000000
outer loop
vertex -5.549283 -2.928452 0.810172
vertex -11.400916 -2.928452 7.809828
vertex -11.400916 -2.928452 0.810172
endloop
endfacet
facet normal 0.000000 0.000000 -1.000000
outer loop
vertex -11.400916 2.825652 0.810172
vertex -5.549283 2.825652 0.810172
vertex -5.549283 -2.928452 0.810172
endloop
endfacet
facet normal 0.000000 0.000000 -1.000000
outer loop
vertex -11.400916 2.825652 0.810172
vertex -5.549283 -2.928452 0.810172
vertex -11.400916 -2.928452 0.810172
endloop
endfacet
facet normal 0.000000 0.000000 1.000000
outer loop
vertex -5.549283 2.825652 7.809828
vertex -11.400916 2.825652 7.809828
vertex -11.400916 -2.928452 7.809828
endloop
endfacet
facet normal 0.000000 0.000000 1.000000
outer loop
vertex -5.549283 2.825652 7.809828
vertex -11.400916 -2.928452 7.809828
vertex -5.549283 -2.928452 7.809828
endloop
endfacet
facet normal -0.707107 -0.707107 0.000000
outer loop
vertex -5.002181 -12.572347 0.810172
vertex -5.002181 -12.572347 7.809828
vertex -9.070948 -8.503580 7.809828
endloop
endfacet
facet normal -0.707107 -0.707107 0.000000
outer loop
vertex -5.002181 -12.572347 0.810172
vertex -9.070948 -8.503580 7.809828
vertex -9.070948 -8.503580 0.810172
endloop
endfacet
facet normal -0.707107 0.707107 0.000000
outer loop
vertex -9.070948 -8.503580 0.810172
vertex -9.070948 -8.503580 7.809828
vertex -4.933218 -4.365852 7.809828
endloop
endfacet
facet normal -0.707107 0.707107 0.000000
outer loop
vertex -9.070948 -8.503580 0.810172
vertex -4.933218 -4.365852 7.809828
vertex -4.933218 -4.365852 0.810172
endloop
endfacet
facet normal 0.707107 0.707107 0.000000
outer loop
vertex -4.933218 -4.365852 0.810172
vertex -4.933218 -4.365852 7.809828
vertex -0.864452 -8.434618 7.809828
endloop
endfacet
facet normal 0.707107 0.707107 0.000000
outer loop
vertex -4.933218 -4.365852 0.810172
vertex -0.864452 -8.434618 7.809828
vertex -0.864452 -8.434618 0.810172
endloop
endfacet
facet normal 0.707107 -0.707107 0.000000
outer loop
vertex -0.864452 -8.434618 0.810172
vertex -0.864452 -8.434618 7.809828
vertex -5.002181 -12.572347 7.809828
endloop
endfacet
facet normal 0.707107 -0.707107 0.000000
outer loop
vertex -0.864452 -8.434618 0.810172
vertex -5.002181 -12.572347 7.809828
vertex -5.002181 -12.572347 0.810172
endloop
endfacet
facet normal 0.000000 0.000000 -1.000000
outer loop
vertex -9.070948 -8.503580 0.810172
vertex -4.933218 -4.365852 0.810172
vertex -0.864452 -8.434618 0.810172
endloop
endfacet
facet normal 0.000000 0.000000 -1.000000
outer loop
vertex -9.070948 -8.503580 0.810172
vertex -0.864452 -8.434618 0.810172
vertex -5.002181 -12.572347 0.810172
endloop
endfacet
facet normal -0.000000 0.000000 1.000000
outer loop
vertex -4.933218 -4.365852 7.809828
vertex -9.070948 -8.503580 7.809828
vertex -5.002181 -12.572347 7.809828
endloop
endfacet
facet normal 0.000000 0.000000 1.000000
outer loop
vertex -4.933218 -4.365852 7.809828
vertex -5.002181 -12.572347 7.809828
vertex -0.864452 -8.434618 7.809828
endloop
endfacet
endsolid Exported from Blender-2.92.0
